<svg width="40" height="40" viewBox="0 0 40 40" fill="none" xmlns="http://www.w3.org/2000/svg">
<g clip-path="url(#clip0_15_268)">
<path d="M17 17.75C17.2984 17.75 17.5845 17.8685 17.7955 18.0795C18.0065 18.2905 18.125 18.5766 18.125 18.875V24.125C18.125 24.4233 18.0065 24.7095 17.7955 24.9205C17.5845 25.1314 17.2984 25.25 17 25.25C16.7016 25.25 16.4155 25.1314 16.2045 24.9205C15.9935 24.7095 15.875 24.4233 15.875 24.125V18.875C15.875 18.5766 15.9935 18.2905 16.2045 18.0795C16.4155 17.8685 16.7016 17.75 17 17.75Z" fill="#6D6F73"/>
<path d="M23 17.75C23.2984 17.75 23.5845 17.8685 23.7955 18.0795C24.0065 18.2905 24.125 18.5766 24.125 18.875V24.125C24.125 24.4233 24.0065 24.7095 23.7955 24.9205C23.5845 25.1314 23.2984 25.25 23 25.25C22.7016 25.25 22.4155 25.1314 22.2045 24.9205C21.9935 24.7095 21.875 24.4233 21.875 24.125V18.875C21.875 18.5766 21.9935 18.2905 22.2045 18.0795C22.4155 17.8685 22.7016 17.75 23 17.75Z" fill="#6D6F73"/>
<path fill-rule="evenodd" clip-rule="evenodd" d="M14.7873 7.74397C13.7217 8.55844 12.9568 9.7037 12.6125 11H9.125C8.82663 11 8.54048 11.1185 8.3295 11.3295C8.11853 11.5405 8 11.8266 8 12.125C8 12.4234 8.11853 12.7095 8.3295 12.9205C8.54048 13.1315 8.82663 13.25 9.125 13.25H10.25V26.375C10.25 27.8668 10.8426 29.2976 11.8975 30.3525C12.9524 31.4074 14.3832 32 15.875 32H24.125C24.8637 32 25.5951 31.8545 26.2776 31.5718C26.9601 31.2891 27.5801 30.8748 28.1025 30.3525C28.6248 29.8301 29.0391 29.21 29.3218 28.5276C29.6045 27.8451 29.75 27.1137 29.75 26.375V13.25H30.875C31.1734 13.25 31.4595 13.1315 31.6705 12.9205C31.8815 12.7095 32 12.4234 32 12.125C32 11.8266 31.8815 11.5405 31.6705 11.3295C31.4595 11.1185 31.1734 11 30.875 11H27.0125C26.7529 9.72958 26.0625 8.58783 25.058 7.76786C24.0535 6.94788 22.7967 6.5 21.5 6.49999H18.5C17.1588 6.49194 15.8529 6.9295 14.7873 7.74397ZM16.5484 9.36799C15.9775 9.77099 15.5456 10.3412 15.3125 11H24.683C24.4501 10.3419 24.019 9.77223 23.449 9.36929C22.8789 8.96636 22.1981 8.75 21.5 8.74999H18.5C17.8012 8.74906 17.1193 8.96499 16.5484 9.36799ZM27.5 13.25H12.5V26.375C12.5 27.2701 12.8556 28.1285 13.4885 28.7615C14.1215 29.3944 14.9799 29.75 15.875 29.75H24.125C25.0201 29.75 25.8785 29.3944 26.5115 28.7615C27.1444 28.1285 27.5 27.2701 27.5 26.375V13.25Z" fill="#6D6F73"/>
</g>
<defs>
<clipPath id="clip0_15_268">
<rect x="2" y="2" width="36" height="36" rx="18" fill="white"/>
</clipPath>
</defs>
</svg>
