<svg width="100" height="100" viewBox="0 0 100 100" fill="none" xmlns="http://www.w3.org/2000/svg">
<rect width="100" height="100" rx="4" fill="#9019A7"/>
<path fill-rule="evenodd" clip-rule="evenodd" d="M51.602 12.3703C51.5488 12 51.5488 12 51.5488 12C48.3596 12.0529 43.0796 11.9295 37.1264 13.6225C31.935 15.1039 26.1767 17.9785 21.9244 22.2816C13.5615 30.7643 10.9038 44.7141 12.3921 55.9656C13.4375 63.9369 17.4949 74.6594 23.2001 79.0154C25.468 80.7613 27.8245 81.2727 29.7911 80.7789C31.7401 80.2851 33.2993 78.7861 35.0179 77.9396C40.103 75.4353 42.6721 79.9148 46.0208 81.4844C47.9166 82.3838 49.901 82.2251 51.5134 81.2727C53.1257 80.3204 54.3482 78.5392 56.1909 77.6398C58.0159 76.7227 60.4432 76.6698 62.8174 77.9749C68.8593 81.308 72.8635 91.6954 78.4978 84.5353C80.1633 82.419 82.0414 78.7508 83.4766 74.3948C86.3114 65.8945 87.6403 54.6782 86.7012 45.7546C86.152 40.411 84.7877 35.1732 84.0967 32.281C80.5354 32.7042 79.7735 32.5279 77.5411 29.618C76.8146 30.1823 75.7693 31.1347 73.8203 31.4168C72.1016 31.6637 69.6566 31.3992 68.0442 30.2881C66.1661 29.0007 65.3334 26.4612 64.8727 25.2796C63.721 25.5794 61.8607 26.2849 59.6459 25.3149C57.7147 24.4684 55.4822 22.3521 54.6495 20.5004C53.6927 18.3665 54.5609 16.5676 54.9507 15.4566C53.1257 14.7335 51.9032 14.3455 51.602 12.3703ZM59.0612 40.5697C61.5417 40.5697 63.5439 44.185 63.5439 48.6468C63.5439 53.1086 61.5417 56.7239 59.0612 56.7239C56.5807 56.7239 54.5786 53.1086 54.5786 48.6468C54.5786 44.2026 56.5984 40.5697 59.0612 40.5697ZM28.7635 40.5697C31.244 40.5697 33.2462 44.185 33.2462 48.6468C33.2462 53.1086 31.244 56.7239 28.7635 56.7239C26.283 56.7239 24.2809 53.1086 24.2809 48.6468C24.2809 44.2026 26.283 40.5697 28.7635 40.5697ZM81.8111 63.0551C82.5907 58.8049 83.0336 54.1844 82.945 50.5162C82.8564 46.848 82.2363 44.1674 81.5808 41.9277C78.9053 32.9511 76.6197 35.7552 73.0053 36.2666C71.4284 36.4959 69.3199 36.4077 67.8139 35.8081C64.4829 34.4854 64.6424 31.2581 62.1264 30.1118C59.451 28.8773 54.1002 29.5651 51.6197 25.5089C49.5644 22.1405 50.1845 18.0843 47.8812 16.8498C45.0817 15.3508 38.0832 17.2731 34.2206 19.0542C22.5799 24.3802 17.4772 35.1027 16.7862 47.5534C16.3255 55.9303 18.1327 61.9441 22.013 68.9631C24.4935 73.4425 26.6551 76.5287 31.0137 74.3243C32.5197 73.566 33.9194 72.3667 35.6204 71.82C37.3213 71.2733 39.3234 71.3791 41.0598 72.2433C44.0541 73.6894 45.7373 76.8815 49.3163 76.3877C52.1689 75.9997 52.9131 73.1074 56.2618 71.8553C58.2108 71.1322 60.8685 71.097 62.906 71.6613C67.5304 72.9487 69.249 77.7103 72.0662 79.6679C73.4659 80.6379 74.8302 80.5144 75.9464 79.5621C78.551 77.2871 80.9606 67.5875 81.8111 63.0551Z" fill="white"/>
</svg>
