<?xml version="1.0" encoding="utf-8"?>

<svg version="1.0" id="svgRoot" xmlns:svg="http://www.w3.org/2000/svg"
	 xmlns="http://www.w3.org/2000/svg" xmlns:xlink="http://www.w3.org/1999/xlink" x="0px" y="0px" viewBox="0 0 758.1 504.2"
	 style="enable-background:new 0 0 758.1 504.2;" xml:space="preserve">
<style type="text/css">
	.st0{fill-rule:evenodd;clip-rule:evenodd;fill:#9019A7;}
	.st1{fill:none;}
</style>
<g>
	<g id="rootGroup">
		<path class="st0" d="M252.4,56.6c-0.3-2.1-0.3-2.1-0.3-2.1c-18,0.3-47.8-0.4-81.4,9.2c-29.3,8.4-61.8,24.7-85.8,49.1
			c-47.2,48.1-62.2,127.2-53.8,191c5.9,45.2,28.8,106,61,130.7c12.8,9.9,26.1,12.8,37.2,10c11-2.8,19.8-11.3,29.5-16.1
			c28.7-14.2,43.2,11.2,62.1,20.1c10.7,5.1,21.9,4.2,31-1.2c9.1-5.4,16-15.5,26.4-20.6c10.3-5.2,24-5.5,37.4,1.9
			c34.1,18.9,56.7,77.8,88.5,37.2c9.4-12,20-32.8,28.1-57.5c16-48.2,23.5-111.8,18.2-162.4c-3.1-30.3-10.8-60-14.7-76.4
			c-20.1,2.4-24.4,1.4-37-15.1c-4.1,3.2-10,8.6-21,10.2c-9.7,1.4-23.5-0.1-32.6-6.4c-10.6-7.3-15.3-21.7-17.9-28.4
			c-6.5,1.7-17,5.7-29.5,0.2c-10.9-4.8-23.5-16.8-28.2-27.3c-5.4-12.1-0.5-22.3,1.7-28.6C261,70,254.1,67.8,252.4,56.6z
			 M294.5,216.5c14,0,25.3,20.5,25.3,45.8s-11.3,45.8-25.3,45.8s-25.3-20.5-25.3-45.8C269.2,237.1,280.6,216.5,294.5,216.5z
			 M123.5,216.5c14,0,25.3,20.5,25.3,45.8s-11.3,45.8-25.3,45.8s-25.3-20.5-25.3-45.8C98.2,237.1,109.5,216.5,123.5,216.5z
			 M422.9,344c4.4-24.1,6.9-50.3,6.4-71.1c-0.5-20.8-4-36-7.7-48.7c-15.1-50.9-28-35-48.4-32.1c-8.9,1.3-20.8,0.8-29.3-2.6
			c-18.8-7.5-17.9-25.8-32.1-32.3c-15.1-7-45.3-3.1-59.3-26.1C240.9,112,244.4,89,231.4,82c-15.8-8.5-55.3,2.4-77.1,12.5
			c-65.7,30.2-94.5,91-98.4,161.6c-2.6,47.5,7.6,81.6,29.5,121.4c14,25.4,26.2,42.9,50.8,30.4c8.5-4.3,16.4-11.1,26-14.2
			s20.9-2.5,30.7,2.4c16.9,8.2,26.4,26.3,46.6,23.5c16.1-2.2,20.3-18.6,39.2-25.7c11-4.1,26-4.3,37.5-1.1
			c26.1,7.3,35.8,34.3,51.7,45.4c7.9,5.5,15.6,4.8,21.9-0.6C404.5,424.7,418.1,369.7,422.9,344z"/>
		<path class="st0" d="M582.8,114.4c0-25.4-14.4-38.1-43.2-38.1c-15.3,0-26.8,4.2-32.5,10.8c-5.7,6.7-8.2,12.9-8.7,20.1
			c-0.2,2.6,0.6,3.6,6.2,4.3l13.9,2.3c4.6,0.9,7,0.2,7-2.3c0-3.9,4.2-7.9,13.3-7.9c8.8,0,13.3,5,13.3,15v8.4h-0.3l-1.9-1.5
			c-2.6-2-9.9-4.8-17.5-4.8c-11.8,0-20.9,3.4-27.6,10.4c-6.7,7-9.9,15.2-9.9,24.6c0,9.8,2.9,18.1,9,25.1s14.4,10.4,25.4,10.4
			c11.9,0,19.4-4.2,23.1-7.6c3.1-2.6,3.3-3.4,3.7-4h1.1l0.2,0.5c0.8,2.3,2.3,5.1,8.5,8.4c3.3,1.7,6.8,2.5,11,2.5c3.9,0,7-0.2,9-0.6
			c5.1-0.8,7.1-3.1,7.1-8.5v-16.4c0-1.4-0.6-1.9-2-1.7l-2.3,0.2c-3.9,0-5.9-1.7-5.9-5.1L582.8,114.4L582.8,114.4z M554.6,155.9
			c0,7.3-5,12.9-14.4,12.9c-8.5,0-14.1-5-14.1-12.9s5.4-12.7,14.1-12.7C549.7,143.2,554.6,148.9,554.6,155.9z M642,127.7h6
			c4.8,0,7.6-3.3,7.6-7.6v-11.3c0-4.3-2.8-7.6-7.6-7.6h-42.9c-4.8,0-7.6,3.3-7.6,7.6v11.3c0,4.3,2.8,7.6,7.6,7.6h6v35.5h-6
			c-4.8,0-7.6,3.3-7.6,7.6v11.3c0,4.3,2.8,7.6,7.6,7.6H648c4.8,0,7.6-3.3,7.6-7.6v-11.3c0-4.3-2.8-7.6-7.6-7.6h-6V127.7z
			 M625.7,93.6c5.4,0,10.2-1.9,14.3-5.7c4-3.9,6-8.5,6-13.9c0-5.3-2-9.8-6-13.6c-4-3.9-8.8-5.9-14.3-5.9c-5.6,0-10.4,2-14.4,5.9
			s-6,8.4-6,13.6c0,5.4,2,10.1,5.9,13.9C615.2,91.8,620,93.6,625.7,93.6z M721.3,132.4c0,19.4-4.3,27.1-14.4,27.1
			c-8.8,0-13.3-9-13.3-27.1c0-19.4,4.5-29.1,13.3-29.1C717,103.2,721.3,111.9,721.3,132.4z M718.7,201.2c0,5,2.9,7.7,7.7,7.7h15.3
			c4.8,0,7.7-2.8,7.7-7.7V83.3c0-4.3-2-5.7-7-5.7h-15.2c-5.6,0-6.8,1.2-6.8,5.7v1.5h-0.9l-0.5-0.9c-1.2-2.5-6.8-7.9-20-7.9
			c-21.5,0-35.5,19.2-35.5,56.4c0,36.4,12.5,54.7,37.8,54.7c7.4,0,13.5-3.4,14.7-4.8c0.8-0.8,1.2-1.4,1.5-1.9h0.9v20.8H718.7z
			 M639.9,294.3c4.8,0,7.6-3.1,7.6-7.6v-11.3c0-4.5-2.8-7.6-7.6-7.6h-16.3v-3.4c0-9.8,3.1-13,13.6-13c1.9,0,4.2,0.1,7.1,0.6
			c3.7,0.7,6.5-1.5,6.5-5.4v-13.3c0-5.1-1.9-7.7-7.4-8.5c-3.1-0.4-6.5-0.8-10.1-0.8c-15.2,0-25.8,3.4-31.8,10.1
			c-5.9,6.6-8.8,16.4-8.8,29.6v4.2h-1.4c-3.9,0-6.2,3.3-6.2,7.4v11.6c0,4.2,2.3,7.4,6.2,7.4h1.4v35.5c0,4.3,2.8,7.6,7.6,7.6h15.6
			c4.8,0,7.6-3.3,7.6-7.6v-35.5L639.9,294.3L639.9,294.3z M746.9,281.9c0-39.8-13.9-57.9-44.8-57.9c-30.8,0-44.8,18.1-44.8,57.9
			c0,39.7,13.8,56.7,44.8,56.7C733.2,338.6,746.9,321.6,746.9,281.9z M688.5,281.9c0-21.5,4.2-30.5,13.6-30.5
			c9.4,0,13.6,9,13.6,30.5c0,20.6-3.9,29.3-13.6,29.3C692.4,311.2,688.5,302.5,688.5,281.9z M532.5,477.6c4.8,0,7.6-3.3,7.6-7.6
			v-62.4c0-9.3,4.3-16,13-16c8.2,0,12.4,6,12.4,18.2V470c0,4.3,2.8,7.6,7.6,7.6h15.6c4.8,0,7.6-3.3,7.6-7.6v-64.3
			c0-9.5,5.3-14.1,12.9-14.1c8.2,0,12.4,6,12.4,18.2V470c0,4.3,2.8,7.6,7.6,7.6h15.6c4.8,0,7.6-3.3,7.6-7.6v-66.9
			c0-11.1-2.9-20.4-8.5-27.7c-5.7-7.4-13.8-11.2-24.6-11.2c-9.1,0-16.4,3.1-20.6,7.4c-4.2,4.3-5.7,7.1-6.8,10.1
			c-5.7-11.6-15.3-17.5-28.7-17.5c-20.4,0-25.4,15.6-25.6,16.4h-0.9V373c0-5.1-2.6-7.6-7.9-7.6h-11.9c-5,0-7.6,3.1-7.6,7.6v97
			c0,4.3,2.8,7.6,7.6,7.6H532.5z M707.6,451.5c-9.4,0-13.8-7.1-14.4-24.5H742c4.3,0,5.5-1.2,5.4-4.3l-0.2-4.6
			c-0.7-19.7-4.1-33.4-10.2-41.5c-6.1-8.1-16.1-12.2-30.2-12.2c-30.8,0-44.8,18.1-44.8,57.9c0,39.7,13.8,56.7,44.8,56.7
			c11.9,0,21.3-3,28-9c6.8-6.1,10.7-13.6,11.8-22.5c0.7-5.6-1.4-7.6-6.4-8.2l-14.7-1.7c-3.4-0.4-5.1,0.6-5.1,3.3
			C720.5,446.5,716.1,451.5,707.6,451.5z M693.8,407.8c1.4-13.5,5.6-19.2,13-19.2c8.4,0,12.9,6.4,13.6,19.2H693.8z"/>
	</g>
	<svg:script>
		<![CDATA[                                  
var svgElement = document.getElementById("svgRoot"); 
var gElement = document.getElementById("rootGroup"); 
var b = gElement.getBBox();                            
svgElement.setAttribute("width", b.width);           
svgElement.setAttribute("height", b.height);         
svgElement.setAttribute("viewBox", [b.x,b.y,b.width,b.height]); 

			
			]]>
	</svg:script>
	<g>
		<path class="st1" d="M-33.4,549h824.9v1H-33.4V549z"/>
		<g>
			<g>
				<defs>
					<polygon id="SVGID_1_" points="-32.9,-45.8 -31.9,-45.8 -32.9,-44.8 					"/>
				</defs>
				<clipPath id="SVGID_00000129164439798599054380000012519424227724194475_">
					<use xlink:href="#SVGID_1_"  style="overflow:visible;"/>
				</clipPath>
			</g>
		</g>
		<path class="st1" d="M-33.4,549h824.9v1H-33.4V549z"/>
	</g>
	<svg:script>
		<![CDATA[                                  
var svgElement = document.getElementById("svgRoot"); 
var gElement = document.getElementById("rootGroup"); 
var b = gElement.getBBox();                            
svgElement.setAttribute("width", b.width);           
svgElement.setAttribute("height", b.height);         
svgElement.setAttribute("viewBox", [b.x,b.y,b.width,b.height]); 

			
			]]>
	</svg:script>
</g>
</svg>
